HIERARCHY
ROOT Hip
{
	OFFSET	0.0000	0.0000	0.0000
	CHANNELS 6 Xposition Yposition Zposition Xrotation Yrotation Zrotation
	JOINT LowerSpine
	{
		OFFSET	0.0000	8.3453	-5.1292
		CHANNELS 3 Xrotation Yrotation Zrotation
		JOINT MiddleSpine
		{
			OFFSET	10.8569	0.0000	0.0000
			CHANNELS 3 Xrotation Yrotation Zrotation
			JOINT Chest
			{
				OFFSET	15.2984	0.0000	0.0000
				CHANNELS 3 Xrotation Yrotation Zrotation
				JOINT Neck
				{
					OFFSET	25.6618	-0.5986	0.0000
					CHANNELS 3 Xrotation Yrotation Zrotation
					JOINT Head
					{
						OFFSET	8.8829	0.0000	0.0000
						CHANNELS 3 Xrotation Yrotation Zrotation
						End Site
						{
							OFFSET	19.7399	0.0000	0.0000
						}
					}
				}
				JOINT RClavicle
				{
					OFFSET	23.6878	0.0000	3.1584
					CHANNELS 3 Xrotation Yrotation Zrotation
					JOINT RShoulder
					{
						OFFSET	-15.5945	-3.9480	0.9870
						CHANNELS 3 Xrotation Yrotation Zrotation
						JOINT RForearm
						{
							OFFSET	-31.3370	0.0000	0.1974
							CHANNELS 3 Xrotation Yrotation Zrotation
							JOINT RHand
							{
								OFFSET	-26.4021	0.0000	0.0000
								CHANNELS 3 Xrotation Yrotation Zrotation
								End Site
								{
									OFFSET	-15.7919	-0.9870	0.0000
								}
							}
						}
					}
				}
				JOINT LClavicle
				{
					OFFSET	23.6878	0.0000	-3.1584
					CHANNELS 3 Xrotation Yrotation Zrotation
					JOINT LShoulder
					{
						OFFSET	-15.5945	-3.9480	-0.9870
						CHANNELS 3 Xrotation Yrotation Zrotation
						JOINT LForearm
						{
							OFFSET	-31.3370	0.0000	-0.1974
							CHANNELS 3 Xrotation Yrotation Zrotation
							JOINT LHand
							{
								OFFSET	-26.4021	0.0000	0.0000
								CHANNELS 3 Xrotation Yrotation Zrotation
								End Site
								{
									OFFSET	-15.7919	-0.9870	0.0000
								}
							}
						}
					}
				}
			}
		}
	}
	JOINT RThigh
	{
		OFFSET	-8.8829	0.4481	0.0000
		CHANNELS 3 Xrotation Yrotation Zrotation
		JOINT RShin
		{
			OFFSET	43.1316	0.0000	-0.4935
			CHANNELS 3 Xrotation Yrotation Zrotation
			JOINT RFoot
			{
				OFFSET	0.0000	-44.7256	-0.4047
				CHANNELS 3 Xrotation Yrotation Zrotation
				JOINT RToe
				{
					OFFSET	0.0000	-3.9332	12.1953
					CHANNELS 3 Xrotation Yrotation Zrotation
					End Site
					{
						OFFSET	6.7725	0.0000	0.0000
					}
				}
			}
		}
	}
	JOINT LThigh
	{
		OFFSET	8.8829	0.4481	0.0000
		CHANNELS 3 Xrotation Yrotation Zrotation
		JOINT LShin
		{
			OFFSET	43.1316	0.0000	0.4935
			CHANNELS 3 Xrotation Yrotation Zrotation
			JOINT LFoot
			{
				OFFSET	0.0000	-44.7256	0.4047
				CHANNELS 3 Xrotation Yrotation Zrotation
				JOINT LToe
				{
					OFFSET	0.0000	-3.9332	-12.1953
					CHANNELS 3 Xrotation Yrotation Zrotation
					End Site
					{
						OFFSET	6.7725	0.0000	0.0000
					}
				}
			}
		}
	}
}
MOTION
Frames:	6
Frame Time: 0.0169491000
	0.0000	93.1363	0.0000	0.000000	0.000000	0.000000	-89.999990	-90.000000	0.000000	0.000000	0.000000	0.000000	0.000000	0.000000	0.000000	0.000000	0.000000	0.000000	0.000000	0.000000	0.000000	89.999990	0.000003	-89.999990	0.129889	-2.857029	4.156837	0.255388	4.965908	-5.884634	0.000000	0.000000	0.000000	-89.999990	-0.000003	-89.999990	-0.129889	2.857029	4.156894	-0.255388	-4.965908	-5.884634	0.000000	0.000000	0.000000	-89.999990	90.000000	0.000000	89.999990	-0.000003	89.999990	0.000000	0.000000	0.000000	180.000000	90.000000	0.000000	-89.999990	90.000000	0.000000	-90.000000	-0.000003	89.999990	0.000000	0.000000	0.000000	180.000000	-90.000000	0.000000
	9.8199	93.6316	-6.3799	-1.639396	2.529977	0.640849	-89.999990	-90.000000	0.000000	0.108241	-0.002178	0.037135	0.366024	-0.007026	0.125800	0.000000	0.000000	0.000000	0.000000	0.000000	0.000000	89.997150	-0.072259	-89.028680	-3.020530	7.907612	1.019015	0.135967	3.809730	-5.875497	0.000000	0.000000	0.000000	-90.000080	-0.001904	-90.025600	-1.116410	-2.015046	-0.289012	-0.198743	-4.417949	-5.880000	0.000000	0.000000	0.000000	19.765140	89.521600	-105.246300	89.964300	3.978806	89.997170	-3.441440	-0.362528	-0.132940	177.360500	90.000000	0.000000	79.042050	88.012770	-164.125700	-89.971820	-3.141436	89.997550	1.374086	0.568879	-0.188739	185.043200	-90.000000	0.000000
	9.5307	93.4784	-6.3273	-1.987732	2.891389	0.319330	-89.999990	-90.000000	0.000000	0.059337	-0.030600	0.041260	0.211962	-0.111721	0.137206	0.000000	0.000000	0.000000	0.000000	0.000000	0.000000	89.996230	-0.106979	-88.562130	-5.898810	6.683688	1.569086	0.410891	6.465195	-5.900122	0.000000	0.000000	0.000000	-90.000370	-0.007718	-90.103740	2.454613	-2.967245	0.438593	-0.355874	-5.935658	-5.894179	0.000000	0.000000	0.000000	-50.571630	89.381190	-35.397830	89.949360	5.644895	89.996720	-4.209074	0.484164	0.205695	177.210300	90.000000	0.000000	114.187500	88.878830	160.127000	-89.955470	-4.964880	89.996850	2.901050	0.025010	-0.016788	184.374100	-90.000000	0.000000
	9.3108	93.2921	-6.3710	-2.214749	3.483206	0.020538	-89.999990	-90.000000	0.000000	0.028246	-0.048669	0.043799	0.111917	-0.184807	0.137589	0.000000	0.000000	0.000000	0.000000	0.000000	0.000000	89.995700	-0.133599	-88.204510	-8.666089	5.270657	2.268275	0.739172	9.598802	-5.946009	0.000000	0.000000	0.000000	-90.000630	-0.012970	-90.174370	6.200608	-3.729312	1.056506	-0.506432	-7.382073	-5.911639	0.000000	0.000000	0.000000	-57.056710	88.803290	-29.357000	89.939200	6.776102	89.996670	-4.816505	1.141310	0.483871	177.033200	90.000000	0.000000	159.706100	88.974820	113.817000	-89.938970	-6.803094	89.996660	4.483133	-0.192488	0.064756	183.619300	-90.000000	0.000000
	9.2151	93.1586	-6.4339	-2.302330	3.947331	-0.130200	-89.999990	-90.000000	0.000000	0.020626	-0.077178	0.044605	0.078708	-0.216904	0.120156	0.000000	0.000000	0.000000	0.000000	0.000000	0.000000	89.995470	-0.149764	-87.987370	-10.746480	3.600157	2.817647	1.121226	13.172610	-6.021468	0.000000	0.000000	0.000000	-90.000740	-0.015245	-90.204940	8.669385	-4.042843	1.422062	-0.619247	-8.459792	-5.927186	0.000000	0.000000	0.000000	-51.647820	88.381290	-34.979310	89.935230	7.216873	89.996690	-5.227118	1.283473	0.557431	177.028500	90.000000	0.000000	175.155500	88.866550	97.762050	-89.927860	-8.035633	89.996830	5.681646	-0.127655	0.052853	182.974900	-90.000000	0.000000
	9.2012	93.0928	-6.4192	-2.385819	4.174264	-0.136896	-89.999990	-90.000000	0.000000	0.028163	-0.072834	0.032291	0.088535	-0.217826	0.082938	0.000000	0.000000	0.000000	0.000000	0.000000	0.000000	89.995370	-0.158360	-87.871890	-12.996780	1.429201	3.431009	1.653654	17.978700	-6.164557	0.000000	0.000000	0.000000	-90.000560	-0.011780	-90.158380	9.571809	-3.662747	1.787994	-0.808937	-10.257940	-5.958037	0.000000	0.000000	0.000000	-48.051940	88.204980	-38.477850	89.934980	7.244952	89.996700	-5.581965	1.084020	0.479817	177.267400	90.000000	0.000000	177.069000	88.834160	95.694600	-89.923490	-8.519493	89.996970	6.349865	-0.289043	0.127207	182.537900	-90.000000	0.000000
